<svg xmlns="http://www.w3.org/2000/svg" viewBox="0 0 512 384"><defs><style>.cls-1{fill:#fff;}</style></defs><g id="レイヤー_2" data-name="レイヤー 2"><g id="Capa_1" data-name="Capa 1"><path class="cls-1" d="M464,0H48A48.05,48.05,0,0,0,0,48V336a48.05,48.05,0,0,0,48,48H464a48.05,48.05,0,0,0,48-48V48A48.05,48.05,0,0,0,464,0Zm0,32a15.86,15.86,0,0,1,6.13,1.24L256,218.83,41.87,33.24A15.86,15.86,0,0,1,48,32Zm0,320H48a16,16,0,0,1-16-16V67.05l213.52,185a16,16,0,0,0,21,0L480,67.05V336A16,16,0,0,1,464,352Z"/></g></g></svg>