<svg xmlns="http://www.w3.org/2000/svg" viewBox="0 0 577 85.87"><defs><style>.cls-1{fill:#515151;}.cls-2{fill:#3dbedb;}.cls-3{fill:#727272;}</style></defs><g id="レイヤー_2" data-name="レイヤー 2"><g id="レイヤー_1-2" data-name="レイヤー 1"><path class="cls-1" d="M206.48,42c0-2.57,1.14-3.5,3.55-3.5h5.56c2.36,0,3.46.93,3.46,3.5V68.52c0,2.48-1.1,3.41-3.46,3.41H210c-2.41,0-3.55-.93-3.55-3.41Zm9.53.51c0-.84-.42-1.06-1.18-1.06H210.7c-.76,0-1.18.22-1.18,1.06v5.9H216ZM209.52,58H216V51.19h-6.49Zm0,2.78V68c0,.84.42,1,1.18,1h4.13c.76,0,1.18-.17,1.18-1V60.8Zm23.1-3.75a28.34,28.34,0,0,0,1.81,6.16,28.92,28.92,0,0,0,5.86-4.6,1.7,1.7,0,0,1,1.14-.55,1.54,1.54,0,0,1,1.14.55,1.44,1.44,0,0,1,.46,1,1.49,1.49,0,0,1-.46,1,39.34,39.34,0,0,1-6.7,5.19,20.75,20.75,0,0,0,7.84,7,1.31,1.31,0,0,1,.71,1.26,1.84,1.84,0,0,1-.29,1,1.5,1.5,0,0,1-1.35.85,2.5,2.5,0,0,1-1.06-.3c-6.7-3.79-11-10.28-12.14-18.59h-4V71c1.94-.54,3.84-1.18,5.48-1.81a2.26,2.26,0,0,1,.51-.08,1.29,1.29,0,0,1,1.22.92,2.08,2.08,0,0,1,.12.68,1.2,1.2,0,0,1-.84,1.22,102.36,102.36,0,0,1-12.26,3.8,1.87,1.87,0,0,1-.47,0A1.35,1.35,0,0,1,218,74.63a3,3,0,0,1-.08-.55,1.3,1.3,0,0,1,1.1-1.39c1-.21,2.19-.51,3.41-.8v-30c0-2.49,1.14-3.42,3.63-3.42h12.09c2.45,0,3.59.93,3.59,3.42v11.8c0,2.36-1.18,3.33-3.63,3.33Zm6-14.54c0-.93-.38-1.14-1.27-1.14H226.84c-.88,0-1.26.21-1.26,1.14v3.88h13.07Zm-13.07,6.66v5.14h11.8c.89,0,1.27-.25,1.27-1.14v-4Z"/><path class="cls-1" d="M248.31,42.38c0-2.61,1.1-3.54,3.41-3.54h4.05c2.32,0,3.37.93,3.37,3.54V69c0,2.49-1.05,3.37-3.37,3.37h-4.05c-2.31,0-3.41-.88-3.41-3.37Zm7.88.51c0-.84-.42-1.1-1.14-1.1H252.4c-.72,0-1.14.26-1.14,1.1v5.9h4.93Zm-4.93,15.72h4.93v-7h-4.93Zm0,2.78v7.08c0,.81.42,1,1.14,1h2.65c.72,0,1.14-.16,1.14-1V61.39Zm10.16,14a1.56,1.56,0,0,1-1.1.46,1.53,1.53,0,0,1-1.13-.5,1.37,1.37,0,0,1-.47-1.06,1.42,1.42,0,0,1,.51-1.13,21.65,21.65,0,0,0,5.9-8.39,1.45,1.45,0,0,1,1.39-1,2,2,0,0,1,.67.12,1.19,1.19,0,0,1,1,1.18,2.5,2.5,0,0,1-.12.68,13.34,13.34,0,0,1-.76,1.73,16,16,0,0,0,3.41,2.9,1.47,1.47,0,0,1,.72,1.23,1.73,1.73,0,0,1-.25.84,1.55,1.55,0,0,1-1.27.67,1.63,1.63,0,0,1-.93-.29,16.89,16.89,0,0,1-3.11-2.78A27.83,27.83,0,0,1,261.42,75.43ZM286,46.34a1.44,1.44,0,0,1,.89,1.35,1.65,1.65,0,0,1-.17.8,1.36,1.36,0,0,1-1.31.93,1.64,1.64,0,0,1-.76-.17A33.57,33.57,0,0,1,273,40.44a1.2,1.2,0,0,0-.72-.42c-.25,0-.46.17-.71.47A31.72,31.72,0,0,1,262,49a1.3,1.3,0,0,1-.68.17,1.74,1.74,0,0,1-1.3-.72,1.6,1.6,0,0,1-.3-.92,1.43,1.43,0,0,1,.76-1.27A32.51,32.51,0,0,0,270,37.87a2.69,2.69,0,0,1,2.23-1,2.85,2.85,0,0,1,2.24,1A35.14,35.14,0,0,0,286,46.34Zm-17.28,5.48c2,0,3,.85,3,3.08V60c0,2.2-1,3-3,3H264.2c-2.06,0-3-.84-3-3V54.9c0-2.23,1-3.08,3-3.08ZM264,59.67c0,.8.38,1,1.05,1h2.87c.67,0,1.05-.21,1.05-1V55.28c0-.76-.38-1-1.05-1H265c-.67,0-1.05.21-1.05,1ZM267.57,49a1.24,1.24,0,0,1-1.18-1.39,1.27,1.27,0,0,1,1.23-1.39h10a1.27,1.27,0,0,1,1.22,1.39c0,.8-.46,1.39-1.14,1.39Zm5.91,26.6a1.47,1.47,0,0,1-1.1.42,1.82,1.82,0,0,1-1.18-.38,1.38,1.38,0,0,1-.46-1,1.47,1.47,0,0,1,.46-1,22.83,22.83,0,0,0,5.35-8.73,1.36,1.36,0,0,1,1.35-1,2.26,2.26,0,0,1,.51.08,1.29,1.29,0,0,1,1.09,1.23,2,2,0,0,1-.08.42,18.07,18.07,0,0,1-.76,1.94,22.22,22.22,0,0,0,6.49,5.26,1.48,1.48,0,0,1,.76,1.35,1.75,1.75,0,0,1-.17.8,1.55,1.55,0,0,1-1.35.93,1.84,1.84,0,0,1-.8-.21,25.25,25.25,0,0,1-6.32-5.35A29.63,29.63,0,0,1,273.48,75.6Zm8-23.78c2.06,0,3,.85,3,3.08V60c0,2.2-1,3-3,3h-4.77c-2,0-3-.84-3-3V54.9c0-2.23,1-3.08,3-3.08Zm-5,7.85c0,.8.38,1,1.06,1h3.07c.72,0,1.1-.21,1.1-1V55.28c0-.76-.38-1-1.1-1h-3.07c-.68,0-1.06.21-1.06,1Z"/><path class="cls-1" d="M291.1,42.68c-.84,0-1.26-.8-1.26-1.69s.42-1.6,1.26-1.6h35.58c.84,0,1.27.8,1.27,1.6s-.43,1.69-1.27,1.69h-17.2v5.06A80.75,80.75,0,0,1,323.82,56a1.69,1.69,0,0,1,.75,1.39,1.58,1.58,0,0,1-.42,1.09,1.6,1.6,0,0,1-1.35.81,2,2,0,0,1-1.22-.51,76.72,76.72,0,0,0-12.1-7.63v23.4c0,.88-.76,1.43-1.77,1.43S306,75.43,306,74.55V42.68Z"/><path class="cls-1" d="M334.66,66.41c-.76,0-1.22-.55-1.22-1.43s.46-1.39,1.22-1.39h4.51V57.81h-6.7c-.76,0-1.18-.63-1.18-1.48s.42-1.43,1.18-1.43h6.7V49.63h-4.6c-.71,0-1.13-.63-1.13-1.43s.42-1.39,1.13-1.39H349.2V42.38c-4.42.34-8.94.59-13,.59a1.41,1.41,0,1,1,.08-2.82,151.11,151.11,0,0,0,17.07-1,93.17,93.17,0,0,0,10.41-1.77,2.28,2.28,0,0,1,.51-.09,1.39,1.39,0,0,1,1.39,1.06,3.54,3.54,0,0,1,.09.59,1.18,1.18,0,0,1-1,1.22A95.67,95.67,0,0,1,353.75,42l-1.43.13v4.72h15.09c.72,0,1.14.59,1.14,1.39s-.42,1.43-1.14,1.43h-4.8V54.9h7c.76,0,1.19.59,1.19,1.43s-.43,1.48-1.19,1.48h-7v5.78h4.8c.76,0,1.18.54,1.18,1.39s-.42,1.43-1.18,1.43H352.32v5.18h16.57c.75,0,1.18.64,1.18,1.48s-.43,1.48-1.18,1.48H333.1c-.72,0-1.14-.64-1.14-1.48s.42-1.48,1.14-1.48h16.1V66.41ZM349.2,49.63h-7V54.9h7Zm0,8.18h-7v5.78h7Zm10.37-8.18h-7.25V54.9h7.25Zm0,8.18h-7.25v5.78h7.25Z"/><path class="cls-1" d="M389.09,47.27A33.9,33.9,0,0,1,379.56,57a2.24,2.24,0,0,1-1.1.34,1.82,1.82,0,0,1-1.77-1.86,1.81,1.81,0,0,1,.89-1.56c4.17-2.7,8.39-7.33,11.21-14.37a1.67,1.67,0,0,1,1.64-1.22,2.89,2.89,0,0,1,.76.12A1.55,1.55,0,0,1,392.5,40a2.61,2.61,0,0,1-.08.55A18,18,0,0,1,390.77,44l13.2-.25c2.69,0,4.38,1.48,4.38,4.22a7.21,7.21,0,0,1-.17,1.6c-2.53,11.93-10.92,21.58-25.29,25a2.19,2.19,0,0,1-.51,0,1.68,1.68,0,0,1-1.72-1.22,2.74,2.74,0,0,1-.09-.64,1.62,1.62,0,0,1,1.39-1.6c12.31-3.24,19.86-10.75,22.39-22.17a5.47,5.47,0,0,0,.08-.76c0-.8-.42-1.18-1.6-1.18h-.17Z"/><path class="cls-1" d="M426.74,59.37a1.91,1.91,0,0,1-3.8,0V40.91a1.71,1.71,0,0,1,1.9-1.73c1.14,0,1.9.59,1.9,1.68ZM443.85,41a1.67,1.67,0,0,1,1.81-1.77c1.14,0,2,.59,2,1.68V54.61c0,6.32-1.61,10.75-5.19,13.91a24.78,24.78,0,0,1-12.94,5.39h-.3a1.83,1.83,0,0,1-1.89-1.47,1.87,1.87,0,0,1,0-.47,1.61,1.61,0,0,1,1.51-1.64c4.26-.55,8.48-2.23,11.13-4.64s3.92-6.11,3.92-11.59Z"/><path class="cls-1" d="M493.48,66.62a1.73,1.73,0,0,1,1.56,1.9c0,1-.55,1.94-1.52,1.94H461.69c-.93,0-1.51-.93-1.51-1.94a1.75,1.75,0,0,1,1.55-1.9ZM490,43.31a1.75,1.75,0,0,1,1.56,1.9A1.69,1.69,0,0,1,490,47.1H465.23a1.7,1.7,0,0,1-1.56-1.89,1.75,1.75,0,0,1,1.56-1.9Z"/><path class="cls-1" d="M508.11,49.08a1.5,1.5,0,0,1,1.39.89A55.81,55.81,0,0,1,513,58.7a4,4,0,0,1,.09.63,1.44,1.44,0,0,1-1.18,1.39,2.31,2.31,0,0,1-.68.13,1.44,1.44,0,0,1-1.47-1.06,56.88,56.88,0,0,0-3.38-8.56,1.1,1.1,0,0,1-.16-.59,1.52,1.52,0,0,1,1.09-1.39A1.92,1.92,0,0,1,508.11,49.08Zm24.83.81v.29c-.55,5.61-2.36,11.26-5.27,15.13a24.51,24.51,0,0,1-14.16,8.94,2,2,0,0,1-.47,0,1.49,1.49,0,0,1-1.51-1.14,2.74,2.74,0,0,1-.09-.63,1.39,1.39,0,0,1,1.18-1.39A22,22,0,0,0,525,63.25c2.52-3.5,4-8.56,4.55-13.66a1.42,1.42,0,0,1,1.56-1.31h.21C532.39,48.45,532.94,49,532.94,49.89ZM517,47.4a1.58,1.58,0,0,1,1.44.93,43.37,43.37,0,0,1,3.28,8.6,1.18,1.18,0,0,1,.05.42,1.49,1.49,0,0,1-1.14,1.43,4.29,4.29,0,0,1-.72.08,1.35,1.35,0,0,1-1.43-1,49,49,0,0,0-3.16-8.34,1.15,1.15,0,0,1-.17-.63,1.55,1.55,0,0,1,1.09-1.35A1.64,1.64,0,0,1,517,47.4Z"/><path class="cls-1" d="M557.74,47.27A33.9,33.9,0,0,1,548.21,57a2.24,2.24,0,0,1-1.1.34,1.82,1.82,0,0,1-1.77-1.86,1.81,1.81,0,0,1,.89-1.56c4.17-2.7,8.39-7.33,11.21-14.37a1.67,1.67,0,0,1,1.64-1.22,3,3,0,0,1,.76.12A1.55,1.55,0,0,1,561.15,40a2.11,2.11,0,0,1-.09.55A17.24,17.24,0,0,1,559.42,44l13.2-.25c2.69,0,4.38,1.48,4.38,4.22a7.21,7.21,0,0,1-.17,1.6c-2.53,11.93-10.92,21.58-25.29,25a2.19,2.19,0,0,1-.51,0,1.68,1.68,0,0,1-1.72-1.22,2.74,2.74,0,0,1-.09-.64,1.61,1.61,0,0,1,1.39-1.6C562.92,67.93,570.47,60.42,573,49a4.34,4.34,0,0,0,.09-.76c0-.8-.42-1.18-1.6-1.18h-.17Z"/><path class="cls-2" d="M42.76.35A42.62,42.62,0,0,1,73,12.87l-7.77,7.78A31.76,31.76,0,1,0,20.3,65.56l-7.77,7.78A42.76,42.76,0,0,1,42.76.35Zm0,37.26H85.17a43.31,43.31,0,0,1,.35,5.5A42.78,42.78,0,0,1,42.76,85.87v-11A31.77,31.77,0,0,0,74,48.61H42.76v-11Z"/><path class="cls-3" d="M136.68,0a42.58,42.58,0,1,0,42.58,42.58A42.58,42.58,0,0,0,136.68,0Zm.11,74.57a31.88,31.88,0,1,1,31.88-31.88A31.89,31.89,0,0,1,136.79,74.57Z"/><path class="cls-3" d="M136.68,28.54a13.41,13.41,0,0,0-5.08,1,5.81,5.81,0,0,1,1,3.19,5.86,5.86,0,0,1-8.71,5.16,13.5,13.5,0,1,0,12.84-9.35Z"/><path class="cls-2" d="M106.63,72.74l7.6-7.53a31.88,31.88,0,1,1,45.24-44.92l7.59-7.54a42.58,42.58,0,1,0-60.43,60Z"/><path class="cls-1" d="M218.38,12.85a.9.9,0,0,1,.07.34.75.75,0,0,1-.54.69,1.14,1.14,0,0,1-.41.07.77.77,0,0,1-.73-.45,3.27,3.27,0,0,0-3.34-2.26c-2.59,0-4.3,2.09-4.3,5.49s1.71,5.47,4.3,5.47a3.44,3.44,0,0,0,3.5-2.62.79.79,0,0,1,.78-.54,1.11,1.11,0,0,1,.34.06.75.75,0,0,1,.61.69,1,1,0,0,1,0,.29,5.15,5.15,0,0,1-5.13,3.64c-3.71,0-6.08-2.71-6.08-7s2.37-7,6-7A4.92,4.92,0,0,1,218.38,12.85Z"/><path class="cls-1" d="M232.84,18.65c0,3-1.66,5.07-4.35,5.07-2.85,0-4.51-2-4.51-5.07s1.68-5,4.48-5S232.84,15.64,232.84,18.65Zm-7.27.05c0,2.19,1,3.69,2.82,3.69s2.86-1.46,2.86-3.76-1-3.66-2.74-3.66S225.57,16.4,225.57,18.7Z"/><path class="cls-1" d="M241.48,19.06c-2.12-.41-3-1.16-3-2.79s1.34-2.65,3.57-2.65c1.92,0,3.14.81,3.57,2.07a.78.78,0,0,1,0,.21.73.73,0,0,1-.61.64,1.26,1.26,0,0,1-.27,0,.68.68,0,0,1-.71-.47,1.83,1.83,0,0,0-2-1.17c-1.4,0-2,.57-2,1.29s.33,1.14,1.78,1.45l1.07.22c2.24.47,3.14,1.13,3.14,2.94s-1.42,2.88-3.83,2.88c-2.21,0-3.51-.88-4-2.41a1,1,0,0,1,0-.23.71.71,0,0,1,.62-.65,1.2,1.2,0,0,1,.24,0,.71.71,0,0,1,.74.47c.31,1,1,1.5,2.39,1.5s2.28-.6,2.28-1.49-.45-1.31-2-1.62Z"/><path class="cls-1" d="M264.64,22.86c0,.47-.34.69-.79.69s-.78-.22-.78-.69V17.34c0-1.47-.41-2.3-1.66-2.3a2.3,2.3,0,0,0-1.93,1.17,3.08,3.08,0,0,0-.47,1.56v5.09c0,.47-.33.69-.77.69s-.78-.22-.78-.69V17.34c0-1.47-.43-2.3-1.66-2.3a2.18,2.18,0,0,0-1.88,1.16,3.05,3.05,0,0,0-.47,1.65v5c0,.47-.31.69-.76.69s-.79-.22-.79-.69V14.45c0-.45.33-.67.81-.67a.65.65,0,0,1,.74.67v.36a5.19,5.19,0,0,1-.12.83,2.85,2.85,0,0,1,2.85-2,2.27,2.27,0,0,1,2.57,1.88,3.05,3.05,0,0,1,3-1.88c2,0,2.85,1.22,2.85,3.33Z"/><path class="cls-1" d="M272,19c0,2.12,1.09,3.45,2.95,3.45a2.37,2.37,0,0,0,2.35-1.54.68.68,0,0,1,.62-.43,1.72,1.72,0,0,1,.37.07.67.67,0,0,1,.53.61.55.55,0,0,1-.09.31A3.81,3.81,0,0,1,275,23.71c-2.84,0-4.48-2-4.48-5s1.56-5.08,4.37-5.08c2.52,0,3.94,2,4.11,4.23V18c0,.62-.33.95-.86.95Zm5.11-1.26c.19,0,.26-.07.26-.23v-.08a2.63,2.63,0,0,0-2.54-2.49c-1.65,0-2.55,1.11-2.78,2.8Z"/><path class="cls-1" d="M285.79,11.79c0-.45.3-.69.78-.69a.69.69,0,0,1,.78.69v2.09h2.21c.43,0,.63.28.63.69a.61.61,0,0,1-.63.68h-2.21V21c0,.85.36,1.21,1,1.21a1.91,1.91,0,0,0,1-.29.59.59,0,0,1,.31-.09.66.66,0,0,1,.57.45,1,1,0,0,1,.06.38.67.67,0,0,1-.36.62,3.58,3.58,0,0,1-1.71.38,2.23,2.23,0,0,1-2.45-2.52V15.25h-1.35c-.41,0-.6-.28-.6-.68s.19-.69.62-.69h1.33Z"/><path class="cls-1" d="M297.59,11a1.17,1.17,0,1,1-1.16-1.15A1.15,1.15,0,0,1,297.59,11Zm-1.95,3.42c0-.45.29-.67.78-.67s.79.22.79.67v8.41c0,.47-.33.69-.79.69s-.78-.22-.78-.69Z"/><path class="cls-1" d="M307.49,13.62A3.55,3.55,0,0,1,311.13,16a.91.91,0,0,1,.05.26.72.72,0,0,1-.52.64,1.58,1.58,0,0,1-.38.05.6.6,0,0,1-.6-.4A2.06,2.06,0,0,0,307.52,15c-1.79,0-2.78,1.52-2.78,3.71s1,3.7,2.8,3.7a2.07,2.07,0,0,0,2.21-1.59.65.65,0,0,1,.64-.47.92.92,0,0,1,.36.07.62.62,0,0,1,.48.9,3.57,3.57,0,0,1-3.72,2.43c-2.8,0-4.37-2-4.37-5S304.66,13.62,307.49,13.62Z"/><path class="cls-1" d="M328.6,21.39c0,.4.26.56.64.56h6.18a.66.66,0,0,1,.69.74.69.69,0,0,1-.69.76h-6.68c-1.23,0-1.77-.54-1.77-1.85V11.86c0-1.33.54-1.86,1.77-1.86h6.52a.66.66,0,0,1,.69.74.68.68,0,0,1-.69.76h-6.08c-.41,0-.58.19-.58.6v3.58h5.89a.66.66,0,0,1,.67.74.68.68,0,0,1-.67.73H328.6Z"/><path class="cls-1" d="M348.05,14.24a.66.66,0,0,1,.67-.44,1.63,1.63,0,0,1,.31,0,.7.7,0,0,1,.57.64,1,1,0,0,1-.05.29l-4.08,10.1c-.6,1.49-1.31,2.47-3,2.47a3.45,3.45,0,0,1-1.24-.22.65.65,0,0,1-.49-.62,1.16,1.16,0,0,1,.09-.4.69.69,0,0,1,.64-.48.83.83,0,0,1,.33.06,2.15,2.15,0,0,0,.86.23c.74,0,1.1-.66,1.41-1.45l.49-1.21-3.49-8.46a.92.92,0,0,1-.05-.28.76.76,0,0,1,.57-.67,1.49,1.49,0,0,1,.36-.05.66.66,0,0,1,.66.43l2.17,5.73c.21.56.37,1.19.52,1.73a17.63,17.63,0,0,1,.57-1.69Z"/><path class="cls-1" d="M356.31,19c0,2.12,1.08,3.45,2.95,3.45a2.38,2.38,0,0,0,2.35-1.54.67.67,0,0,1,.62-.43,1.53,1.53,0,0,1,.36.07.68.68,0,0,1,.54.61.55.55,0,0,1-.09.31,3.82,3.82,0,0,1-3.8,2.28c-2.83,0-4.47-2-4.47-5s1.55-5.08,4.37-5.08c2.52,0,3.93,2,4.11,4.23V18a.83.83,0,0,1-.87.95Zm5.11-1.26c.19,0,.26-.07.26-.23v-.08a2.63,2.63,0,0,0-2.54-2.49c-1.66,0-2.56,1.11-2.78,2.8Z"/><path class="cls-1" d="M369,10.58c0-.46.31-.69.8-.69s.77.23.77.69V22.86c0,.47-.31.69-.77.69s-.8-.22-.8-.69Z"/><path class="cls-1" d="M378.92,11a1.17,1.17,0,1,1-1.16-1.15A1.15,1.15,0,0,1,378.92,11ZM377,14.45c0-.45.29-.67.77-.67s.8.22.8.67v8.41c0,.47-.33.69-.8.69s-.77-.22-.77-.69Z"/><path class="cls-1" d="M391.7,10.58a.68.68,0,0,1,.76-.69c.48,0,.78.23.78.69V22.86c0,.47-.32.69-.8.69s-.74-.28-.74-.64v-.36c0-.19,0-.55.05-.79a3.27,3.27,0,0,1-3.18,1.95c-2.52,0-4.11-2-4.11-5.1s1.57-5,4.13-5a3.27,3.27,0,0,1,3.18,2c0-.4-.07-.9-.07-1.28Zm-5.65,8c0,2.26,1,3.73,2.75,3.73s2.93-1.57,2.93-3.71S390.7,15,388.8,15,386.05,16.44,386.05,18.63Z"/><path class="cls-1" d="M414.64,15.83c2.69.57,4.16,1.49,4.16,4,0,2.23-1.71,3.9-4.8,3.9-3.94,0-4.75-2-5.16-3.43a1.11,1.11,0,0,1,0-.23.77.77,0,0,1,.66-.72,1.45,1.45,0,0,1,.29,0,.74.74,0,0,1,.76.52c.31,1.16.88,2.45,3.41,2.45,2,0,3.19-.95,3.19-2.43s-.78-2-2.82-2.45l-1.38-.3c-2.59-.53-3.76-1.52-3.76-3.78,0-1.81,1.35-3.57,4.59-3.57s4.18,1.66,4.56,2.9a.6.6,0,0,1,.05.26.74.74,0,0,1-.64.69,1.29,1.29,0,0,1-.29,0,.77.77,0,0,1-.76-.5,2.65,2.65,0,0,0-2.92-1.95c-2,0-2.92,1-2.92,2.14s.61,1.88,2.54,2.26Z"/><path class="cls-1" d="M424.71,14.47c0-.47.33-.69.8-.69s.79.22.79.69V20c0,1.49.61,2.32,1.88,2.32a2.68,2.68,0,0,0,2.25-1.25,2.91,2.91,0,0,0,.59-1.79v-4.8c0-.47.32-.69.79-.69s.78.22.78.69v8.39c0,.47-.31.69-.76.69s-.8-.21-.8-.64v-.48a4.55,4.55,0,0,1,.11-.81,3.32,3.32,0,0,1-3.27,2.09c-2,0-3.16-1.28-3.16-3.39Z"/><path class="cls-1" d="M439.23,14.45c0-.45.32-.67.81-.67s.77.22.77.67v.38a6.16,6.16,0,0,1-.1.81,2.9,2.9,0,0,1,2.64-2h.38a3.1,3.1,0,0,1,.69.08.58.58,0,0,1,.56.62,1.77,1.77,0,0,1,0,.3.74.74,0,0,1-.67.67.44.44,0,0,1-.16,0,3.54,3.54,0,0,0-.83-.1,2.25,2.25,0,0,0-1.74.95,3.11,3.11,0,0,0-.73,1.92v4.76a.68.68,0,0,1-.77.69c-.49,0-.81-.22-.81-.69Z"/><path class="cls-1" d="M457.07,14.4c0-.36.24-.62.74-.62s.74.22.74.69v8c0,4-2.09,4.87-4.37,4.87a4.45,4.45,0,0,1-3.71-1.47.68.68,0,0,1-.14-.38.77.77,0,0,1,.33-.6.91.91,0,0,1,.5-.17.66.66,0,0,1,.5.22A3,3,0,0,0,454.11,26c2.16,0,2.94-1.09,3-3.65a6.19,6.19,0,0,1,.07-.82,3.29,3.29,0,0,1-3.08,1.84c-2.45,0-4.16-1.9-4.16-4.78s1.54-5,4.2-5a3.16,3.16,0,0,1,3,2c0-.19-.07-.52-.07-.71Zm-5.58,4.23c0,2.19,1.17,3.52,2.78,3.52,1.76,0,2.83-1.5,2.83-3.64S456.05,15,454.29,15,451.49,16.4,451.49,18.63Z"/><path class="cls-1" d="M466,19c0,2.12,1.08,3.45,3,3.45a2.38,2.38,0,0,0,2.35-1.54.67.67,0,0,1,.62-.43,1.53,1.53,0,0,1,.36.07.67.67,0,0,1,.54.61.55.55,0,0,1-.09.31,3.82,3.82,0,0,1-3.8,2.28c-2.83,0-4.47-2-4.47-5s1.55-5.08,4.37-5.08c2.52,0,3.94,2,4.11,4.23V18c0,.62-.33.95-.86.95Zm5.11-1.26c.19,0,.26-.07.26-.23v-.08a2.63,2.63,0,0,0-2.54-2.49c-1.66,0-2.56,1.11-2.78,2.8Z"/><path class="cls-1" d="M479,14.45c0-.45.33-.67.81-.67s.78.22.78.67v.38c0,.24-.07.54-.1.81a2.88,2.88,0,0,1,2.64-2h.38a3.1,3.1,0,0,1,.69.08.57.57,0,0,1,.55.62c0,.09,0,.19,0,.3a.74.74,0,0,1-.68.67.39.39,0,0,1-.15,0,3.62,3.62,0,0,0-.83-.1,2.25,2.25,0,0,0-1.74.95,3.11,3.11,0,0,0-.73,1.92v4.76a.69.69,0,0,1-.78.69c-.48,0-.81-.22-.81-.69Z"/><path class="cls-1" d="M496.37,14.24a.66.66,0,0,1,.67-.44,1.63,1.63,0,0,1,.31,0,.7.7,0,0,1,.57.64,1,1,0,0,1-.05.29l-4.08,10.1c-.6,1.49-1.31,2.47-3,2.47a3.45,3.45,0,0,1-1.24-.22.65.65,0,0,1-.49-.62,1.16,1.16,0,0,1,.09-.4.69.69,0,0,1,.64-.48.86.86,0,0,1,.33.06,2.15,2.15,0,0,0,.86.23c.74,0,1.1-.66,1.41-1.45l.49-1.21-3.49-8.46a.92.92,0,0,1-.05-.28.76.76,0,0,1,.57-.67,1.49,1.49,0,0,1,.36-.05.66.66,0,0,1,.66.43l2.17,5.73c.21.56.37,1.19.52,1.73a17.63,17.63,0,0,1,.57-1.69Z"/><path class="cls-1" d="M523.87,12.85a.87.87,0,0,1,.06.34.74.74,0,0,1-.53.69A1.23,1.23,0,0,1,523,14a.74.74,0,0,1-.72-.45,3.28,3.28,0,0,0-3.35-2.26c-2.59,0-4.3,2.09-4.3,5.49s1.71,5.47,4.3,5.47a3.44,3.44,0,0,0,3.5-2.62.79.79,0,0,1,.78-.54,1.17,1.17,0,0,1,.35.06.75.75,0,0,1,.6.69,1,1,0,0,1,0,.29A5.14,5.14,0,0,1,519,23.72c-3.71,0-6.08-2.71-6.08-7s2.37-7,6-7A4.94,4.94,0,0,1,523.87,12.85Z"/><path class="cls-1" d="M529.9,10.58c0-.46.31-.69.79-.69s.78.23.78.69V22.86c0,.47-.31.69-.78.69s-.79-.22-.79-.69Z"/><path class="cls-1" d="M539.8,11a1.17,1.17,0,1,1-1.16-1.15A1.15,1.15,0,0,1,539.8,11Zm-1.95,3.42c0-.45.29-.67.77-.67s.8.22.8.67v8.41c0,.47-.33.69-.8.69s-.77-.22-.77-.69Z"/><path class="cls-1" d="M553.73,22.86c0,.47-.34.69-.79.69s-.8-.22-.8-.69V17.34c0-1.47-.58-2.3-1.88-2.3A2.7,2.7,0,0,0,548,16.27a2.72,2.72,0,0,0-.61,1.76v4.83c0,.47-.33.69-.77.69s-.8-.22-.8-.69V14.45c0-.45.33-.67.81-.67s.76.22.76.67v.47c0,.22-.05.4-.07.72a3.41,3.41,0,0,1,3.28-2c2.06,0,3.16,1.24,3.16,3.37Z"/><path class="cls-1" d="M562,11a1.17,1.17,0,1,1-1.15-1.15A1.15,1.15,0,0,1,562,11Zm-2,3.42c0-.45.29-.67.78-.67s.79.22.79.67v8.41c0,.47-.33.69-.79.69s-.78-.22-.78-.69Z"/><path class="cls-1" d="M571.91,13.62A3.55,3.55,0,0,1,575.55,16a.69.69,0,0,1,.06.26.72.72,0,0,1-.52.64,1.65,1.65,0,0,1-.38.05.6.6,0,0,1-.61-.4A2,2,0,0,0,571.94,15c-1.79,0-2.77,1.52-2.77,3.71s1,3.7,2.79,3.7a2.07,2.07,0,0,0,2.21-1.59.65.65,0,0,1,.64-.47.92.92,0,0,1,.36.07.64.64,0,0,1,.56.59.76.76,0,0,1-.07.31,3.58,3.58,0,0,1-3.73,2.43c-2.8,0-4.37-2-4.37-5S569.08,13.62,571.91,13.62Z"/></g></g></svg>