<?xml version="1.0" standalone="no"?>
<!DOCTYPE svg PUBLIC "-//W3C//DTD SVG 20010904//EN"
 "http://www.w3.org/TR/2001/REC-SVG-20010904/DTD/svg10.dtd">
<svg version="1.0" xmlns="http://www.w3.org/2000/svg"
 width="260.000000pt" height="260.000000pt" viewBox="0 0 260.000000 260.000000"
 preserveAspectRatio="xMidYMid meet">
<metadata>
Created by potrace 1.11, written by Peter Selinger 2001-2013
</metadata>
<g transform="translate(0.000000,260.000000) scale(0.100000,-0.100000)"
fill="#000000" stroke="none">
<path d="M610 1883 c-209 -26 -371 -135 -465 -314 -93 -177 -86 -406 18 -575
20 -33 47 -71 61 -86 l26 -27 50 51 c27 28 50 52 50 54 0 2 -16 26 -36 54 -55
76 -77 142 -80 241 -4 96 10 154 55 234 130 230 449 288 650 119 l33 -27 54
55 55 55 -53 40 c-120 93 -285 143 -418 126z"/>
<path d="M1812 1876 c-201 -49 -374 -221 -426 -424 -22 -81 -22 -212 -1 -293
48 -184 185 -334 370 -405 92 -35 246 -42 345 -15 157 42 304 161 372 301 48
98 60 154 60 275 -1 84 -6 114 -29 180 -87 244 -300 397 -553 394 -47 0 -109
-6 -138 -13z m321 -179 c88 -42 151 -97 194 -168 173 -289 -32 -657 -367 -661
-346 -4 -558 380 -370 672 41 64 108 123 176 155 74 35 117 43 212 40 70 -2
93 -8 155 -38z"/>
<path d="M1902 1492 c-5 -4 -10 -24 -10 -45 0 -56 -35 -91 -84 -84 l-38 5 0
-49 c0 -83 39 -147 106 -175 56 -24 117 -20 168 10 133 78 119 270 -24 330
-36 15 -99 19 -118 8z"/>
<path d="M667 1365 c-2 -5 -3 -39 -3 -75 l1 -65 180 -2 c99 -1 195 -2 213 -2
33 -1 33 -2 27 -33 -20 -89 -107 -207 -193 -262 -48 -30 -125 -57 -177 -61
-22 -2 -42 -4 -45 -4 -3 -1 -6 -35 -6 -77 l0 -76 60 6 c300 28 539 303 524
600 l-3 60 -287 0 c-184 1 -289 -3 -291 -9z"/>
</g>
</svg>
